<svg xmlns="http://www.w3.org/2000/svg" width="100" height="100" viewBox="0 0 100 100">
    <path fill="none" d="M0 0h100v100H0z"/>
    <path fill="#0c1821" d="M77.5 6.62a22.213 22.213 0 0 0-15.708 6.375L50 23.453l-6.333 5.583h.042L32.5 38.995a14.108 14.108 0 1 1-10-24.042 14.165 14.165 0 0 1 10.167 4.292l4.708 4.167 6.292-5.583-5.25-4.629a22.416 22.416 0 1 0-.208 31.875L50 34.662l.042.042 6.292-5.667h-.042L67.5 19.078a14.108 14.108 0 1 1 10 24.042 14.235 14.235 0 0 1-10.167-4.292l-4.75-4.208-6.291 5.58 5.292 4.667A22.455 22.455 0 1 0 77.5 6.62z" transform="translate(0 20.963)"/>
</svg>
