<svg xmlns="http://www.w3.org/2000/svg" width="100" height="100" viewBox="0 0 100 100">
    <g>
        <path fill="none" d="M0 0h100v100H0z"/>
    </g>
    <g>
        <g>
            <path fill="#0c1821" d="M75.917 70.042a41.679 41.679 0 1 0-5.875 5.875 43.372 43.372 0 0 0 3.25-2.958c.125-.125.208-.25.292-.333a33.487 33.487 0 0 0 2.333-2.584zM43.667 77A33.333 33.333 0 1 1 77 43.667a33.015 33.015 0 0 1-7.042 20.417L64 58.125A25.276 25.276 0 1 0 58.125 64l5.917 5.917A32.594 32.594 0 0 1 43.667 77zm8-31.208a8.252 8.252 0 0 0-2.042-7.917l-.083-.083a8.29 8.29 0 0 0-11.583-.167c-.042.042-.125.083-.208.167a8.349 8.349 0 0 0 0 11.792l.083.083a8.228 8.228 0 0 0 7.958 2.042L52.083 58a16.429 16.429 0 0 1-8.5 2.417A16.667 16.667 0 1 1 60.25 43.75a16.275 16.275 0 0 1-2.333 8.333z" transform="translate(8.333 8.333) translate(-2 -2)"/>
        </g>
    </g>
</svg>
